<svg width="100%" height="100%" id="svg" viewBox="0 0 1440 590" xmlns="http://www.w3.org/2000/svg" class="transition duration-300 ease-in-out delay-150"><path d="M 0,600 L 0,112 C 85.01683270353831,106.77980075575402 170.03366540707663,101.55960151150806 235,100 C 299.9663345929234,98.44039848849194 344.8821710752319,100.54139470972174 408,110 C 471.1178289247681,119.45860529027826 552.437650291996,136.27481964960495 615,134 C 677.562349708004,131.72518035039505 721.3672277567846,110.35932669185846 795,109 C 868.6327722432154,107.64067330814154 972.0934386808656,126.28787358296117 1054,140 C 1135.9065613191344,153.71212641703883 1196.2590175197527,162.4891789762968 1257,157 C 1317.7409824802473,151.5108210237032 1378.8704912401236,131.7554105118516 1440,112 L 1440,600 L 0,600 Z" stroke="none" stroke-width="0" fill="#181818" fill-opacity="0.4" class="transition-all duration-300 ease-in-out delay-150 path-0" transform="rotate(-180 720 300)"></path><path d="M 0,600 L 0,262 C 59.70388182755066,248.93713500515287 119.40776365510132,235.87427001030574 186,230 C 252.59223634489868,224.12572998969426 326.0728272071453,225.44005496392992 401,237 C 475.9271727928547,248.55994503607008 552.3009275163174,270.36551013397457 629,280 C 705.6990724836826,289.63448986602543 782.7234627275851,287.09790450017175 845,282 C 907.2765372724149,276.90209549982825 954.8052215733426,269.2428718653383 1023,256 C 1091.1947784266574,242.75712813466166 1180.055650979045,223.9306080384748 1253,224 C 1325.944349020955,224.0693919615252 1382.9721745104775,243.0346959807626 1440,262 L 1440,600 L 0,600 Z" stroke="none" stroke-width="0" fill="#181818" fill-opacity="0.53" class="transition-all duration-300 ease-in-out delay-150 path-1" transform="rotate(-180 720 300)"></path><path d="M 0,600 L 0,412 C 71.00790106492613,385.86465132256956 142.01580212985226,359.72930264513917 206,356 C 269.98419787014774,352.27069735486083 326.944692545517,370.94744074201304 389,378 C 451.055307454483,385.05255925798696 518.2054276880797,380.4809343868086 586,375 C 653.7945723119203,369.5190656131914 722.2335967021642,363.12882171075233 786,377 C 849.7664032978358,390.87117828924767 908.8601855032634,425.00377877018207 991,432 C 1073.1398144967366,438.99622122981793 1178.3256612847817,418.8560632085194 1257,411 C 1335.6743387152183,403.1439367914806 1387.8371693576091,407.5719683957403 1440,412 L 1440,600 L 0,600 Z" stroke="none" stroke-width="0" fill="#181818" fill-opacity="1" class="transition-all duration-300 ease-in-out delay-150 path-2" transform="rotate(-180 720 300)"></path></svg>