<svg id="visual" viewBox="0 0 960 540" width="960" height="540" xmlns="http://www.w3.org/2000/svg" xmlns:xlink="http://www.w3.org/1999/xlink" version="1.1"><path d="M0 109L14.5 106.3C29 103.7 58 98.3 87.2 93C116.3 87.7 145.7 82.3 174.8 84.2C204 86 233 95 262 92.2C291 89.3 320 74.7 349 75.5C378 76.3 407 92.7 436.2 91C465.3 89.3 494.7 69.7 523.8 63.3C553 57 582 64 611 71.2C640 78.3 669 85.7 698 89.3C727 93 756 93 785.2 96.5C814.3 100 843.7 107 872.8 106C902 105 931 96 945.5 91.5L960 87L960 0L945.5 0C931 0 902 0 872.8 0C843.7 0 814.3 0 785.2 0C756 0 727 0 698 0C669 0 640 0 611 0C582 0 553 0 523.8 0C494.7 0 465.3 0 436.2 0C407 0 378 0 349 0C320 0 291 0 262 0C233 0 204 0 174.8 0C145.7 0 116.3 0 87.2 0C58 0 29 0 14.5 0L0 0Z" fill="#4b03ba"></path><path d="M0 136L14.5 133.3C29 130.7 58 125.3 87.2 119C116.3 112.7 145.7 105.3 174.8 108C204 110.7 233 123.3 262 126C291 128.7 320 121.3 349 123.2C378 125 407 136 436.2 130.7C465.3 125.3 494.7 103.7 523.8 100C553 96.3 582 110.7 611 117.8C640 125 669 125 698 127.7C727 130.3 756 135.7 785.2 142C814.3 148.3 843.7 155.7 872.8 156.7C902 157.7 931 152.3 945.5 149.7L960 147L960 85L945.5 89.5C931 94 902 103 872.8 104C843.7 105 814.3 98 785.2 94.5C756 91 727 91 698 87.3C669 83.7 640 76.3 611 69.2C582 62 553 55 523.8 61.3C494.7 67.7 465.3 87.3 436.2 89C407 90.7 378 74.3 349 73.5C320 72.7 291 87.3 262 90.2C233 93 204 84 174.8 82.2C145.7 80.3 116.3 85.7 87.2 91C58 96.3 29 101.7 14.5 104.3L0 107Z" fill="#5402d1"></path><path d="M0 206L14.5 201.5C29 197 58 188 87.2 174.5C116.3 161 145.7 143 174.8 145.7C204 148.3 233 171.7 262 176.2C291 180.7 320 166.3 349 161.8C378 157.3 407 162.7 436.2 157.3C465.3 152 494.7 136 523.8 133.3C553 130.7 582 141.3 611 153.8C640 166.3 669 180.7 698 182.5C727 184.3 756 173.7 785.2 177.3C814.3 181 843.7 199 872.8 205.3C902 211.7 931 206.3 945.5 203.7L960 201L960 145L945.5 147.7C931 150.3 902 155.7 872.8 154.7C843.7 153.7 814.3 146.3 785.2 140C756 133.7 727 128.3 698 125.7C669 123 640 123 611 115.8C582 108.7 553 94.3 523.8 98C494.7 101.7 465.3 123.3 436.2 128.7C407 134 378 123 349 121.2C320 119.3 291 126.7 262 124C233 121.3 204 108.7 174.8 106C145.7 103.3 116.3 110.7 87.2 117C58 123.3 29 128.7 14.5 131.3L0 134Z" fill="#5d01e8"></path><path d="M0 239L14.5 239.8C29 240.7 58 242.3 87.2 233.3C116.3 224.3 145.7 204.7 174.8 207.3C204 210 233 235 262 238.5C291 242 320 224 349 215C378 206 407 206 436.2 200.7C465.3 195.3 494.7 184.7 523.8 182.8C553 181 582 188 611 203.3C640 218.7 669 242.3 698 247.8C727 253.3 756 240.7 785.2 239.7C814.3 238.7 843.7 249.3 872.8 250.2C902 251 931 242 945.5 237.5L960 233L960 199L945.5 201.7C931 204.3 902 209.7 872.8 203.3C843.7 197 814.3 179 785.2 175.3C756 171.7 727 182.3 698 180.5C669 178.7 640 164.3 611 151.8C582 139.3 553 128.7 523.8 131.3C494.7 134 465.3 150 436.2 155.3C407 160.7 378 155.3 349 159.8C320 164.3 291 178.7 262 174.2C233 169.7 204 146.3 174.8 143.7C145.7 141 116.3 159 87.2 172.5C58 186 29 195 14.5 199.5L0 204Z" fill="#6600ff"></path><path d="M0 314L14.5 313.2C29 312.3 58 310.7 87.2 301.7C116.3 292.7 145.7 276.3 174.8 272.7C204 269 233 278 262 279C291 280 320 273 349 270.3C378 267.7 407 269.3 436.2 262C465.3 254.7 494.7 238.3 523.8 239.2C553 240 582 258 611 271.5C640 285 669 294 698 297.7C727 301.3 756 299.7 785.2 298.8C814.3 298 843.7 298 872.8 298.8C902 299.7 931 301.3 945.5 302.2L960 303L960 231L945.5 235.5C931 240 902 249 872.8 248.2C843.7 247.3 814.3 236.7 785.2 237.7C756 238.7 727 251.3 698 245.8C669 240.3 640 216.7 611 201.3C582 186 553 179 523.8 180.8C494.7 182.7 465.3 193.3 436.2 198.7C407 204 378 204 349 213C320 222 291 240 262 236.5C233 233 204 208 174.8 205.3C145.7 202.7 116.3 222.3 87.2 231.3C58 240.3 29 238.7 14.5 237.8L0 237Z" fill="#7c33ff"></path><path d="M0 401L14.5 401.8C29 402.7 58 404.3 87.2 408.8C116.3 413.3 145.7 420.7 174.8 426C204 431.3 233 434.7 262 427.3C291 420 320 402 349 405.7C378 409.3 407 434.7 436.2 437.5C465.3 440.3 494.7 420.7 523.8 404.5C553 388.3 582 375.7 611 373.8C640 372 669 381 698 383.7C727 386.3 756 382.7 785.2 389C814.3 395.3 843.7 411.7 872.8 420.7C902 429.7 931 431.3 945.5 432.2L960 433L960 301L945.5 300.2C931 299.3 902 297.7 872.8 296.8C843.7 296 814.3 296 785.2 296.8C756 297.7 727 299.3 698 295.7C669 292 640 283 611 269.5C582 256 553 238 523.8 237.2C494.7 236.3 465.3 252.7 436.2 260C407 267.3 378 265.7 349 268.3C320 271 291 278 262 277C233 276 204 267 174.8 270.7C145.7 274.3 116.3 290.7 87.2 299.7C58 308.7 29 310.3 14.5 311.2L0 312Z" fill="#8f4fff"></path><path d="M0 541L14.5 541C29 541 58 541 87.2 541C116.3 541 145.7 541 174.8 541C204 541 233 541 262 541C291 541 320 541 349 541C378 541 407 541 436.2 541C465.3 541 494.7 541 523.8 541C553 541 582 541 611 541C640 541 669 541 698 541C727 541 756 541 785.2 541C814.3 541 843.7 541 872.8 541C902 541 931 541 945.5 541L960 541L960 431L945.5 430.2C931 429.3 902 427.7 872.8 418.7C843.7 409.7 814.3 393.3 785.2 387C756 380.7 727 384.3 698 381.7C669 379 640 370 611 371.8C582 373.7 553 386.3 523.8 402.5C494.7 418.7 465.3 438.3 436.2 435.5C407 432.7 378 407.3 349 403.7C320 400 291 418 262 425.3C233 432.7 204 429.3 174.8 424C145.7 418.7 116.3 411.3 87.2 406.8C58 402.3 29 400.7 14.5 399.8L0 399Z" fill="#a067ff"></path></svg>